<svg data-v-0dd9719b="" version="1.0" xmlns="http://www.w3.org/2000/svg" xmlns:xlink="http://www.w3.org/1999/xlink" width="100%" height="100%" viewBox="0 0 340.000000 250.000000" preserveAspectRatio="xMidYMid meet" color-interpolation-filters="sRGB" style="margin: auto;"> <rect data-v-0dd9719b="" x="0" y="0" width="100%" height="100%" fill="#fff" fill-opacity="1" class="background"></rect> <rect data-v-0dd9719b="" x="0" y="0" width="100%" height="100%" fill="url(#watermark)" fill-opacity="1" class="watermarklayer"></rect> <g data-v-0dd9719b="" fill="#333" class="icon-text-wrapper icon-svg-group iconsvg" transform="translate(48.159996032714844,95.05270576477051)"><g class="iconsvg-imagesvg" transform="translate(0,0)"><g><rect fill="#333" fill-opacity="0" stroke-width="2" x="0" y="0" width="60" height="59.89458552946814" class="image-rect"></rect> <svg x="0" y="0" width="60" height="59.89458552946814" filtersec="colorsb4196875002" class="image-svg-svg primary" style="overflow: visible;"><svg xmlns="http://www.w3.org/2000/svg" viewBox="0 -0.002719478914514184 80.16826629638672 80.02741241455078"><title>资源 225</title><path d="M80.11 49.38v28.74c0 1.39-.34 1.84-1.76 1.83q-22.54-.06-45.1 0c-1.44 0-2-.38-1.92-1.88.1-4 .13-7.93 0-11.89-.07-1.8.59-2.12 2.23-2.11 9.47.07 18.94 0 28.41.07 1.72 0 2.19-.5 2.18-2.2q-.12-15.44 0-30.87a2.84 2.84 0 0 0-1.85-3c-7-3.31-13.92-6.68-20.87-10a2.76 2.76 0 0 0-2.55-.07c-7.06 3.4-14.1 6.84-21.19 10.2a2.61 2.61 0 0 0-1.62 2.8c0 15.56 0 31.11.06 46.66 0 1.72-.3 2.43-2.2 2.36C10 79.82 6 79.85 2 80c-1.57 0-2-.44-2-2 .11-18.43.18-36.82 0-55.22 0-2.92.82-4.29 3.44-5.52C15.24 11.76 26.93 6 38.65.34a3.14 3.14 0 0 1 3 .08Q55.24 7 68.86 13.56c3.18 1.54 6.32 3.17 9.56 4.59a2.48 2.48 0 0 1 1.73 2.67c-.06 9.52 0 19 0 28.56z" fill="#1a5893"></path><path d="M40.14 51h-6.93c-1.16 0-1.74-.33-1.72-1.61.05-3.08 0-6.15 0-9.23A2.18 2.18 0 0 1 32.93 38c2-.93 3.94-1.87 5.89-2.85a2.55 2.55 0 0 1 2.52 0c1.93 1 3.91 1.94 5.89 2.87a2.13 2.13 0 0 1 1.37 2.21c-.06 3.08-.05 6.15 0 9.23 0 1.14-.4 1.59-1.55 1.56-2.3-.02-4.61-.02-6.91-.02z" fill="#2a93e7"></path></svg></svg> <!----></g></g> <g transform="translate(67,18.207294464111328)"><g data-gra="path-name" fill-rule="" class="tp-name iconsvg-namesvg"><g transform="scale(1)"><g><path d="M3.44-25.97L29.33-25.97 27.75-13.23Q27.42-12.03 26.45-11.24 25.47-10.45 24.56-10.45L24.56-10.45 10.62-10.45 9.42-2.49 1.87-2.49 4.65-24.81 3.44-25.97ZM20.99-21.99L12.24-21.99 11.41-14.44 19.79-14.44 20.99-21.99ZM45.8-12.86L46.42-16.01 42.19-16.01 41.82-14.44 33.85-14.44 35.05-20 54.55-20 52.15-4.48 53.76-2.49 35.05-2.49Q33.85-2.49 33.25-3.28 32.65-4.07 32.65-5.27L32.65-5.27 33.85-12.86 45.8-12.86ZM45.01-8.88L41.03-8.88 40.61-6.47 44.6-6.47 45.01-8.88ZM58.87-20L80.77-20 78.36-2.49 70.4-2.49 72.39-16.01 67.62-16.01 65.63-2.49 57.66-2.49 60.07-18.83 58.87-20ZM95.21-16.01L84.84-16.01 85.66-20 104.37-20 103.96-16.01 92.8-6.47 102.76-6.47 101.97-2.49 83.26-2.49 83.67-6.47 95.21-16.01ZM108.07-20L117.23-20 115.41-7.55 120.39-8.05 122.01-18.83 120.8-20 129.97-20 127.56-2.49 119.6-2.49 119.85-4.07 106.86-2.49 109.27-18.83 108.07-20ZM134.78-20L142.83-20 142.04-14.44 147.64-20 155.61-20 142.04-8.05 141.25-2.49 133.29-2.49 135.61-18.83 134.78-20ZM169.79-12.86L170.42-16.01 166.19-16.01 165.81-14.44 157.85-14.44 159.05-20 178.55-20 176.14-4.48 177.76-2.49 159.05-2.49Q157.85-2.49 157.25-3.28 156.64-4.07 156.64-5.27L156.64-5.27 157.85-12.86 169.79-12.86ZM169.01-8.88L165.02-8.88 164.61-6.47 168.59-6.47 169.01-8.88Z" transform="translate(-1.8700000047683716, 25.969999313354492)"></path></g> <!----> <!----> <!----> <!----> <!----> <!----> <!----></g></g> <!----></g></g><defs v-gra="od"></defs></svg>